<?xml version="1.0" standalone="no"?>
<!DOCTYPE svg PUBLIC "-//W3C//DTD SVG 20010904//EN"
 "http://www.w3.org/TR/2001/REC-SVG-20010904/DTD/svg10.dtd">
<svg version="1.0" xmlns="http://www.w3.org/2000/svg"
 width="512.000000pt" height="512.000000pt" viewBox="0 0 512.000000 512.000000"
 preserveAspectRatio="xMidYMid meet">
<metadata>
Created by potrace 1.11, written by Peter Selinger 2001-2013
</metadata>
<g transform="translate(0.000000,512.000000) scale(0.100000,-0.100000)"
fill="#000000" stroke="none">
<path d="M2379 5116 c-2 -2 -40 -6 -83 -10 -44 -4 -82 -9 -85 -11 -4 -2 -34
-7 -66 -10 -33 -4 -128 -24 -211 -45 -258 -66 -481 -159 -704 -294 -179 -109
-307 -210 -471 -372 l-106 -105 -56 -4 c-42 -2 -67 -11 -96 -32 -54 -38 -72
-81 -73 -176 -1 -76 -3 -81 -51 -160 -66 -108 -146 -269 -195 -392 -37 -92
-105 -305 -116 -365 -2 -14 -9 -46 -15 -71 -6 -25 -13 -61 -15 -80 -3 -19 -8
-52 -11 -74 -19 -130 -22 -202 -20 -395 2 -118 6 -231 10 -250 3 -19 13 -78
21 -130 49 -303 162 -613 324 -887 l67 -111 0 -489 c0 -268 3 -505 7 -526 9
-46 72 -112 117 -121 18 -3 928 -6 2024 -6 l1991 0 45 29 c84 53 82 35 82 609
l0 503 54 91 c105 176 175 328 241 523 31 89 75 258 86 325 3 19 8 49 11 65
24 141 30 218 30 410 0 167 -9 325 -20 357 -2 7 -6 31 -9 53 -30 266 -170 645
-344 932 -48 80 -50 85 -50 162 -1 136 -52 197 -176 207 -47 3 -53 8 -155 108
-125 122 -159 152 -268 234 -208 157 -456 288 -718 379 -74 25 -276 78 -335
87 -19 3 -44 7 -55 10 -11 2 -45 7 -75 11 -30 4 -64 9 -75 12 -23 5 -451 14
-456 9z"/>
</g>
</svg>
